<svg width="56" height="56" viewBox="0 0 56 56" fill="none" xmlns="http://www.w3.org/2000/svg">
<g filter="url(#filter0_d_1_160)">
<rect x="11" y="11" width="34" height="34" rx="2" fill="#D2D6E6" fill-opacity="0.823529" shape-rendering="crispEdges"/>
</g>
<rect x="15.5" y="26.5" width="25" height="14" fill="#D9D9D9" stroke="black"/>
<line x1="23" y1="38.5" x2="33" y2="38.5" stroke="black"/>
<rect x="19.5" y="34.5" width="1" height="1" fill="#D9D9D9" stroke="black"/>
<rect x="19.5" y="30.5" width="1" height="1" fill="#D9D9D9" stroke="black"/>
<rect x="23.5" y="34.5" width="1" height="1" fill="#D9D9D9" stroke="black"/>
<rect x="23.5" y="30.5" width="1" height="1" fill="#D9D9D9" stroke="black"/>
<rect x="27.5" y="34.5" width="1" height="1" fill="#D9D9D9" stroke="black"/>
<rect x="27.5" y="30.5" width="1" height="1" fill="#D9D9D9" stroke="black"/>
<rect x="31.5" y="34.5" width="1" height="1" fill="#D9D9D9" stroke="black"/>
<rect x="31.5" y="30.5" width="1" height="1" fill="#D9D9D9" stroke="black"/>
<rect x="35.5" y="34.5" width="1" height="1" fill="#D9D9D9" stroke="black"/>
<rect x="35.5" y="30.5" width="1" height="1" fill="#D9D9D9" stroke="black"/>
<line x1="16.4979" y1="15.0453" x2="15.4979" y2="26.0453" stroke="black"/>
<line x1="40.5017" y1="26.9585" x2="41.5017" y2="14.9585" stroke="black"/>
<line x1="16" y1="15.5" x2="42" y2="15.5" stroke="black"/>
<line x1="41.5" y1="15" x2="41.5" y2="14" stroke="#D9D9D9"/>
<path d="M18 17H40L39 25H17.5L18 17Z" fill="#D9D9D9"/>
<defs>
<filter id="filter0_d_1_160" x="0" y="0" width="56" height="56" filterUnits="userSpaceOnUse" color-interpolation-filters="sRGB">
<feFlood flood-opacity="0" result="BackgroundImageFix"/>
<feColorMatrix in="SourceAlpha" type="matrix" values="0 0 0 0 0 0 0 0 0 0 0 0 0 0 0 0 0 0 127 0" result="hardAlpha"/>
<feMorphology radius="1" operator="dilate" in="SourceAlpha" result="effect1_dropShadow_1_160"/>
<feOffset/>
<feGaussianBlur stdDeviation="5"/>
<feComposite in2="hardAlpha" operator="out"/>
<feColorMatrix type="matrix" values="0 0 0 0 0 0 0 0 0 0 0 0 0 0 0 0 0 0 0.25 0"/>
<feBlend mode="normal" in2="BackgroundImageFix" result="effect1_dropShadow_1_160"/>
<feBlend mode="normal" in="SourceGraphic" in2="effect1_dropShadow_1_160" result="shape"/>
</filter>
</defs>
</svg>
