<svg width="56" height="56" viewBox="0 0 56 56" fill="none" xmlns="http://www.w3.org/2000/svg">
<g filter="url(#filter0_d_1_159)">
<rect x="11" y="11" width="34" height="34" rx="2" fill="#D2D6E6"/>
</g>
<line x1="15" y1="40.5" x2="25" y2="40.5" stroke="black"/>
<line x1="31" y1="40.5" x2="41" y2="40.5" stroke="black"/>
<line x1="31.5" y1="41" x2="31.5" y2="31" stroke="black"/>
<line x1="24.5" y1="41" x2="24.5" y2="31" stroke="black"/>
<line x1="24" y1="30.5" x2="32" y2="30.5" stroke="black"/>
<line x1="15.5" y1="41" x2="15.5" y2="21" stroke="black"/>
<line x1="40.5" y1="41" x2="40.5" y2="21" stroke="black"/>
<line x1="28.237" y1="14.4402" x2="15.2371" y2="21.4402" stroke="black"/>
<line x1="40.763" y1="21.4402" x2="27.763" y2="14.4402" stroke="black"/>
<rect x="17" y="22" width="6" height="17" fill="#D9D9D9"/>
<rect x="33" y="22" width="6" height="17" fill="#D9D9D9"/>
<rect x="23" y="22" width="10" height="7" fill="#D9D9D9"/>
<path d="M28 15.5L39.5 22H16.5L28 15.5Z" fill="#D9D9D9"/>
<defs>
<filter id="filter0_d_1_159" x="0" y="0" width="56" height="56" filterUnits="userSpaceOnUse" color-interpolation-filters="sRGB">
<feFlood flood-opacity="0" result="BackgroundImageFix"/>
<feColorMatrix in="SourceAlpha" type="matrix" values="0 0 0 0 0 0 0 0 0 0 0 0 0 0 0 0 0 0 127 0" result="hardAlpha"/>
<feMorphology radius="1" operator="dilate" in="SourceAlpha" result="effect1_dropShadow_1_159"/>
<feOffset/>
<feGaussianBlur stdDeviation="5"/>
<feComposite in2="hardAlpha" operator="out"/>
<feColorMatrix type="matrix" values="0 0 0 0 0 0 0 0 0 0 0 0 0 0 0 0 0 0 0.25 0"/>
<feBlend mode="normal" in2="BackgroundImageFix" result="effect1_dropShadow_1_159"/>
<feBlend mode="normal" in="SourceGraphic" in2="effect1_dropShadow_1_159" result="shape"/>
</filter>
</defs>
</svg>
