<svg width="56" height="56" viewBox="0 0 56 56" fill="none" xmlns="http://www.w3.org/2000/svg">
<g filter="url(#filter0_d_1_162)">
<rect x="11" y="11" width="34" height="34" rx="2" fill="#D2D6E6"/>
</g>
<mask id="path-2-outside-1_1_162" maskUnits="userSpaceOnUse" x="23" y="14" width="10" height="24" fill="black">
<rect fill="white" x="23" y="14" width="10" height="24"/>
<path d="M29.5781 22.7266V33.8281C29.5781 34.3932 29.5964 34.849 29.6328 35.1953C29.6875 35.5234 29.7969 35.7878 29.9609 35.9883C30.125 36.1706 30.3529 36.2982 30.6445 36.3711C30.9544 36.444 31.3737 36.5078 31.9023 36.5625V37H24.4922V36.5625C25.0391 36.526 25.4674 36.4714 25.7773 36.3984C26.1055 36.3073 26.3516 36.1706 26.5156 35.9883C26.6979 35.7878 26.8164 35.5234 26.8711 35.1953C26.9258 34.849 26.9531 34.3932 26.9531 33.8281V26.582C26.9531 25.8893 26.8711 25.4062 26.707 25.1328C26.5612 24.8411 26.306 24.6953 25.9414 24.6953C25.7956 24.6953 25.6224 24.7044 25.4219 24.7227C25.2396 24.7409 25.0482 24.7682 24.8477 24.8047L24.6289 24.832V24.3672L29.4414 22.6445L29.5781 22.7266ZM28.0195 15.6719C28.457 15.6719 28.8307 15.8359 29.1406 16.1641C29.4505 16.474 29.6055 16.8477 29.6055 17.2852C29.6055 17.7409 29.4505 18.1237 29.1406 18.4336C28.849 18.7253 28.4661 18.8711 27.9922 18.8711C27.5365 18.8711 27.1628 18.7253 26.8711 18.4336C26.5794 18.1237 26.4336 17.7409 26.4336 17.2852C26.4336 16.8477 26.5885 16.474 26.8984 16.1641C27.2083 15.8359 27.582 15.6719 28.0195 15.6719Z"/>
</mask>
<path d="M29.5781 22.7266V33.8281C29.5781 34.3932 29.5964 34.849 29.6328 35.1953C29.6875 35.5234 29.7969 35.7878 29.9609 35.9883C30.125 36.1706 30.3529 36.2982 30.6445 36.3711C30.9544 36.444 31.3737 36.5078 31.9023 36.5625V37H24.4922V36.5625C25.0391 36.526 25.4674 36.4714 25.7773 36.3984C26.1055 36.3073 26.3516 36.1706 26.5156 35.9883C26.6979 35.7878 26.8164 35.5234 26.8711 35.1953C26.9258 34.849 26.9531 34.3932 26.9531 33.8281V26.582C26.9531 25.8893 26.8711 25.4062 26.707 25.1328C26.5612 24.8411 26.306 24.6953 25.9414 24.6953C25.7956 24.6953 25.6224 24.7044 25.4219 24.7227C25.2396 24.7409 25.0482 24.7682 24.8477 24.8047L24.6289 24.832V24.3672L29.4414 22.6445L29.5781 22.7266ZM28.0195 15.6719C28.457 15.6719 28.8307 15.8359 29.1406 16.1641C29.4505 16.474 29.6055 16.8477 29.6055 17.2852C29.6055 17.7409 29.4505 18.1237 29.1406 18.4336C28.849 18.7253 28.4661 18.8711 27.9922 18.8711C27.5365 18.8711 27.1628 18.7253 26.8711 18.4336C26.5794 18.1237 26.4336 17.7409 26.4336 17.2852C26.4336 16.8477 26.5885 16.474 26.8984 16.1641C27.2083 15.8359 27.582 15.6719 28.0195 15.6719Z" fill="black"/>
<path d="M29.5781 22.7266H30.5781V22.1604L30.0926 21.8691L29.5781 22.7266ZM29.6328 35.1953L28.6383 35.3L28.6415 35.33L28.6464 35.3597L29.6328 35.1953ZM29.9609 35.9883L29.187 36.6215L29.2019 36.6397L29.2176 36.6572L29.9609 35.9883ZM30.6445 36.3711L30.402 37.3413L30.4155 37.3445L30.6445 36.3711ZM31.9023 36.5625H32.9023V35.6606L32.0052 35.5678L31.9023 36.5625ZM31.9023 37V38H32.9023V37H31.9023ZM24.4922 37H23.4922V38H24.4922V37ZM24.4922 36.5625L24.4257 35.5647L23.4922 35.6269V36.5625H24.4922ZM25.7773 36.3984L26.0064 37.3719L26.0258 37.3673L26.045 37.362L25.7773 36.3984ZM26.5156 35.9883L25.7757 35.3156L25.7723 35.3193L26.5156 35.9883ZM26.8711 35.1953L27.8575 35.3597L27.8589 35.3513L26.8711 35.1953ZM26.707 25.1328L25.8126 25.58L25.8298 25.6144L25.8495 25.6473L26.707 25.1328ZM25.4219 24.7227L25.3313 23.7267L25.3224 23.7276L25.4219 24.7227ZM24.8477 24.8047L24.9717 25.797L24.9992 25.7935L25.0265 25.7886L24.8477 24.8047ZM24.6289 24.832H23.6289V25.9648L24.7529 25.8243L24.6289 24.832ZM24.6289 24.3672L24.2919 23.4257L23.6289 23.663V24.3672H24.6289ZM29.4414 22.6445L29.9559 21.787L29.55 21.5435L29.1044 21.703L29.4414 22.6445ZM29.1406 16.1641L28.4136 16.8507L28.4234 16.8611L28.4335 16.8712L29.1406 16.1641ZM29.1406 18.4336L29.8477 19.1407L29.1406 18.4336ZM26.8711 18.4336L26.1429 19.119L26.1533 19.13L26.164 19.1407L26.8711 18.4336ZM26.8984 16.1641L27.6055 16.8712L27.6156 16.8611L27.6255 16.8507L26.8984 16.1641ZM28.5781 22.7266V33.8281H30.5781V22.7266H28.5781ZM28.5781 33.8281C28.5781 34.4096 28.5967 34.9043 28.6383 35.3L30.6273 35.0906C30.5961 34.7936 30.5781 34.3769 30.5781 33.8281H28.5781ZM28.6464 35.3597C28.7218 35.8121 28.8853 36.2528 29.187 36.6215L30.7349 35.355C30.7085 35.3227 30.6532 35.2347 30.6192 35.0309L28.6464 35.3597ZM29.2176 36.6572C29.5423 37.018 29.9612 37.231 30.402 37.3412L30.8871 35.401C30.7445 35.3653 30.7077 35.3231 30.7042 35.3193L29.2176 36.6572ZM30.4155 37.3445C30.7852 37.4315 31.2524 37.5006 31.7994 37.5572L32.0052 35.5678C31.495 35.515 31.1236 35.4565 30.8736 35.3977L30.4155 37.3445ZM30.9023 36.5625V37H32.9023V36.5625H30.9023ZM31.9023 36H24.4922V38H31.9023V36ZM25.4922 37V36.5625H23.4922V37H25.4922ZM24.5587 37.5603C25.1273 37.5224 25.6184 37.4631 26.0064 37.3719L25.5483 35.425C25.3165 35.4796 24.9508 35.5297 24.4257 35.5647L24.5587 37.5603ZM26.045 37.362C26.488 37.2389 26.9271 37.0259 27.2589 36.6572L25.7723 35.3193C25.776 35.3153 25.723 35.3757 25.5097 35.4349L26.045 37.362ZM27.2556 36.661C27.5938 36.2889 27.7784 35.8341 27.8575 35.3597L25.8847 35.0309C25.8544 35.2128 25.802 35.2866 25.7757 35.3156L27.2556 36.661ZM27.8589 35.3513C27.9251 34.9319 27.9531 34.418 27.9531 33.8281H25.9531C25.9531 34.3684 25.9265 34.766 25.8833 35.0393L27.8589 35.3513ZM27.9531 33.8281V26.582H25.9531V33.8281H27.9531ZM27.9531 26.582C27.9531 25.8749 27.881 25.1457 27.5645 24.6183L25.8495 25.6473C25.8427 25.6359 25.8755 25.6899 25.9057 25.8676C25.9344 26.0364 25.9531 26.2708 25.9531 26.582H27.9531ZM27.6015 24.6856C27.4503 24.3833 27.2199 24.1179 26.9024 23.9364C26.5914 23.7587 26.2563 23.6953 25.9414 23.6953V25.6953C25.9911 25.6953 25.9659 25.7048 25.9101 25.6729C25.8832 25.6576 25.8591 25.638 25.84 25.6171C25.8215 25.5969 25.8136 25.5821 25.8126 25.58L27.6015 24.6856ZM25.9414 23.6953C25.7564 23.6953 25.5515 23.7067 25.3313 23.7268L25.5124 25.7185C25.6932 25.7021 25.8347 25.6953 25.9414 25.6953V23.6953ZM25.3224 23.7276C25.1107 23.7488 24.8927 23.7801 24.6688 23.8208L25.0265 25.7886C25.2036 25.7564 25.3684 25.733 25.5214 25.7177L25.3224 23.7276ZM24.7236 23.8124L24.5049 23.8398L24.7529 25.8243L24.9717 25.797L24.7236 23.8124ZM25.6289 24.832V24.3672H23.6289V24.832H25.6289ZM24.9659 25.3087L29.7784 23.586L29.1044 21.703L24.2919 23.4257L24.9659 25.3087ZM28.9269 23.502L29.0636 23.5841L30.0926 21.8691L29.9559 21.787L28.9269 23.502ZM28.0195 16.6719C28.1722 16.6719 28.2859 16.7154 28.4136 16.8507L29.8676 15.4774C29.3756 14.9564 28.7418 14.6719 28.0195 14.6719V16.6719ZM28.4335 16.8712C28.5562 16.9939 28.6055 17.1134 28.6055 17.2852H30.6055C30.6055 16.5819 30.3448 15.954 29.8477 15.457L28.4335 16.8712ZM28.6055 17.2852C28.6055 17.4875 28.5477 17.6123 28.4335 17.7265L29.8477 19.1407C30.3533 18.6351 30.6055 17.9943 30.6055 17.2852H28.6055ZM28.4335 17.7265C28.3577 17.8023 28.2438 17.8711 27.9922 17.8711V19.8711C28.6885 19.8711 29.3402 19.6482 29.8477 19.1407L28.4335 17.7265ZM27.9922 17.8711C27.7712 17.8711 27.6618 17.8101 27.5782 17.7265L26.164 19.1407C26.6637 19.6404 27.3018 19.8711 27.9922 19.8711V17.8711ZM27.5993 17.7482C27.4953 17.6378 27.4336 17.506 27.4336 17.2852H25.4336C25.4336 17.9758 25.6635 18.6096 26.1429 19.119L27.5993 17.7482ZM27.4336 17.2852C27.4336 17.1134 27.4828 16.9939 27.6055 16.8712L26.1913 15.457C25.6943 15.954 25.4336 16.5819 25.4336 17.2852H27.4336ZM27.6255 16.8507C27.7532 16.7154 27.8668 16.6719 28.0195 16.6719V14.6719C27.2972 14.6719 26.6635 14.9564 26.1714 15.4774L27.6255 16.8507Z" fill="black" mask="url(#path-2-outside-1_1_162)"/>
<defs>
<filter id="filter0_d_1_162" x="0" y="0" width="56" height="56" filterUnits="userSpaceOnUse" color-interpolation-filters="sRGB">
<feFlood flood-opacity="0" result="BackgroundImageFix"/>
<feColorMatrix in="SourceAlpha" type="matrix" values="0 0 0 0 0 0 0 0 0 0 0 0 0 0 0 0 0 0 127 0" result="hardAlpha"/>
<feMorphology radius="1" operator="dilate" in="SourceAlpha" result="effect1_dropShadow_1_162"/>
<feOffset/>
<feGaussianBlur stdDeviation="5"/>
<feComposite in2="hardAlpha" operator="out"/>
<feColorMatrix type="matrix" values="0 0 0 0 0 0 0 0 0 0 0 0 0 0 0 0 0 0 0.25 0"/>
<feBlend mode="normal" in2="BackgroundImageFix" result="effect1_dropShadow_1_162"/>
<feBlend mode="normal" in="SourceGraphic" in2="effect1_dropShadow_1_162" result="shape"/>
</filter>
</defs>
</svg>
