<svg width="56" height="56" viewBox="0 0 56 56" fill="none" xmlns="http://www.w3.org/2000/svg">
<path d="M32.5 40C32.5 41.8346 30.5952 43.5 28 43.5C25.4048 43.5 23.5 41.8346 23.5 40C23.5 38.1654 25.4048 36.5 28 36.5C30.5952 36.5 32.5 38.1654 32.5 40Z" fill="#D9D9D9" stroke="black"/>
<g filter="url(#filter0_d_1_161)">
<rect x="11" y="11" width="34" height="34" rx="2" fill="#D2D6E6"/>
</g>
<path d="M36.0221 25.8471C35.5029 27.0975 35.1324 28.2002 34.8148 29.1453C34.7508 29.336 34.6888 29.5204 34.6283 29.6982C34.2591 30.782 33.9496 31.5947 33.5244 32.2183C33.1154 32.8182 32.5923 33.2515 31.7633 33.5441C30.9127 33.8443 29.7291 34 28 34C24.5099 34 23.2504 33.4903 22.4694 32.3969C22.0497 31.8093 21.7412 31.0175 21.3728 29.9122C21.2875 29.6563 21.1994 29.3851 21.1063 29.0984C20.8065 28.1754 20.455 27.0932 19.9795 25.8538C18.5606 19.6272 22.386 14.5 28 14.5C31.0975 14.5 33.4376 15.8036 34.8376 17.8453C36.2385 19.8881 36.7331 22.7234 36.0221 25.8471Z" fill="#D9D9D9" stroke="black"/>
<path d="M32.3178 26.324C32.4491 26.4171 32.4869 26.4779 32.4971 26.5C32.4869 26.5221 32.4491 26.5829 32.3178 26.676C32.1269 26.8114 31.8183 26.9538 31.3919 27.0817C30.5454 27.3357 29.3461 27.5 28 27.5C26.6539 27.5 25.4546 27.3357 24.6081 27.0817C24.1817 26.9538 23.8731 26.8114 23.6822 26.676C23.5509 26.5829 23.5131 26.5221 23.5029 26.5C23.5131 26.4779 23.5509 26.4171 23.6822 26.324C23.8731 26.1886 24.1817 26.0462 24.6081 25.9183C25.4546 25.6643 26.6539 25.5 28 25.5C29.3461 25.5 30.5454 25.6643 31.3919 25.9183C31.8183 26.0462 32.1269 26.1886 32.3178 26.324Z" fill="#D9D9D9" stroke="black"/>
<path d="M32.3178 28.324C32.4491 28.4171 32.4869 28.4779 32.4971 28.5C32.4869 28.5221 32.4491 28.5829 32.3178 28.676C32.1269 28.8114 31.8183 28.9538 31.3919 29.0817C30.5454 29.3357 29.3461 29.5 28 29.5C26.6539 29.5 25.4546 29.3357 24.6081 29.0817C24.1817 28.9538 23.8731 28.8114 23.6822 28.676C23.5509 28.5829 23.5131 28.5221 23.5029 28.5C23.5131 28.4779 23.5509 28.4171 23.6822 28.324C23.8731 28.1886 24.1817 28.0462 24.6081 27.9183C25.4546 27.6643 26.6539 27.5 28 27.5C29.3461 27.5 30.5454 27.6643 31.3919 27.9183C31.8183 28.0462 32.1269 28.1886 32.3178 28.324Z" fill="#D9D9D9" stroke="black"/>
<path d="M32.3178 24.324C32.4491 24.4171 32.4869 24.4779 32.4971 24.5C32.4869 24.5221 32.4491 24.5829 32.3178 24.676C32.1269 24.8114 31.8183 24.9538 31.3919 25.0817C30.5454 25.3357 29.3461 25.5 28 25.5C26.6539 25.5 25.4546 25.3357 24.6081 25.0817C24.1817 24.9538 23.8731 24.8114 23.6822 24.676C23.5509 24.5829 23.5131 24.5221 23.5029 24.5C23.5131 24.4779 23.5509 24.4171 23.6822 24.324C23.8731 24.1886 24.1817 24.0462 24.6081 23.9183C25.4546 23.6643 26.6539 23.5 28 23.5C29.3461 23.5 30.5454 23.6643 31.3919 23.9183C31.8183 24.0462 32.1269 24.1886 32.3178 24.324Z" fill="#D9D9D9" stroke="black"/>
<path d="M32.3178 22.324C32.4491 22.4171 32.4869 22.4779 32.4971 22.5C32.4869 22.5221 32.4491 22.5829 32.3178 22.676C32.1269 22.8114 31.8183 22.9538 31.3919 23.0817C30.5454 23.3357 29.3461 23.5 28 23.5C26.6539 23.5 25.4546 23.3357 24.6081 23.0817C24.1817 22.9538 23.8731 22.8114 23.6822 22.676C23.5509 22.5829 23.5131 22.5221 23.5029 22.5C23.5131 22.4779 23.5509 22.4171 23.6822 22.324C23.8731 22.1886 24.1817 22.0462 24.6081 21.9183C25.4546 21.6643 26.6539 21.5 28 21.5C29.3461 21.5 30.5454 21.6643 31.3919 21.9183C31.8183 22.0462 32.1269 22.1886 32.3178 22.324Z" fill="#D9D9D9" stroke="black"/>
<line x1="25.5" y1="29" x2="25.5" y2="34" stroke="black"/>
<line x1="30.5" y1="29" x2="30.5" y2="34" stroke="black"/>
<path d="M32.5 39C32.5 39.5838 32.103 40.1977 31.2783 40.6926C30.4635 41.1814 29.3057 41.5 28 41.5C26.6943 41.5 25.5365 41.1814 24.7217 40.6926C23.897 40.1977 23.5 39.5838 23.5 39C23.5 38.4162 23.897 37.8023 24.7217 37.3074C25.5365 36.8186 26.6943 36.5 28 36.5C29.3057 36.5 30.4635 36.8186 31.2783 37.3074C32.103 37.8023 32.5 38.4162 32.5 39Z" fill="#D9D9D9" stroke="black"/>
<path d="M33.2741 36.3466C33.3922 36.4164 33.4507 36.4689 33.479 36.5C33.4507 36.5311 33.3922 36.5836 33.2741 36.6534C33.0298 36.7978 32.6431 36.9452 32.1214 37.0756C31.0856 37.3345 29.6283 37.5 28 37.5C26.3717 37.5 24.9144 37.3345 23.8786 37.0756C23.3569 36.9452 22.9702 36.7978 22.7259 36.6534C22.6078 36.5836 22.5493 36.5311 22.521 36.5C22.5493 36.4689 22.6078 36.4164 22.7259 36.3466C22.9702 36.2022 23.3569 36.0548 23.8786 35.9244C24.9144 35.6655 26.3717 35.5 28 35.5C29.6283 35.5 31.0856 35.6655 32.1214 35.9244C32.6431 36.0548 33.0298 36.2022 33.2741 36.3466Z" fill="#D9D9D9" stroke="black"/>
<path d="M33.2741 37.3466C33.3922 37.4164 33.4507 37.4689 33.479 37.5C33.4507 37.5311 33.3922 37.5836 33.2741 37.6534C33.0298 37.7978 32.6431 37.9452 32.1214 38.0756C31.0856 38.3345 29.6283 38.5 28 38.5C26.3717 38.5 24.9144 38.3345 23.8786 38.0756C23.3569 37.9452 22.9702 37.7978 22.7259 37.6534C22.6078 37.5836 22.5493 37.5311 22.521 37.5C22.5493 37.4689 22.6078 37.4164 22.7259 37.3466C22.9702 37.2022 23.3569 37.0548 23.8786 36.9244C24.9144 36.6655 26.3717 36.5 28 36.5C29.6283 36.5 31.0856 36.6655 32.1214 36.9244C32.6431 37.0548 33.0298 37.2022 33.2741 37.3466Z" fill="#D9D9D9" stroke="black"/>
<path d="M33.2741 38.3466C33.3922 38.4164 33.4507 38.4689 33.479 38.5C33.4507 38.5311 33.3922 38.5836 33.2741 38.6534C33.0298 38.7978 32.6431 38.9452 32.1214 39.0756C31.0856 39.3345 29.6283 39.5 28 39.5C26.3717 39.5 24.9144 39.3345 23.8786 39.0756C23.3569 38.9452 22.9702 38.7978 22.7259 38.6534C22.6078 38.5836 22.5493 38.5311 22.521 38.5C22.5493 38.4689 22.6078 38.4164 22.7259 38.3466C22.9702 38.2022 23.3569 38.0548 23.8786 37.9244C24.9144 37.6655 26.3717 37.5 28 37.5C29.6283 37.5 31.0856 37.6655 32.1214 37.9244C32.6431 38.0548 33.0298 38.2022 33.2741 38.3466Z" fill="#D9D9D9" stroke="black"/>
<path d="M33.2741 39.3466C33.3351 39.3826 33.3802 39.4141 33.4135 39.4403C33.4068 39.4424 33.3999 39.4444 33.3927 39.4464C33.1559 39.5133 32.7726 39.5501 32.2328 39.5608C31.7032 39.5712 31.0686 39.5564 30.3479 39.5385C30.3185 39.5378 30.2889 39.5371 30.2593 39.5363C29.5659 39.519 28.8014 39.5 28 39.5C27.1986 39.5 26.4341 39.519 25.7407 39.5363C25.7111 39.5371 25.6815 39.5378 25.6521 39.5385C24.9314 39.5564 24.2968 39.5712 23.7672 39.5608C23.2274 39.5501 22.8441 39.5133 22.6073 39.4464C22.6001 39.4444 22.5932 39.4424 22.5865 39.4403C22.6198 39.4141 22.6649 39.3826 22.7259 39.3466C22.9702 39.2022 23.3569 39.0548 23.8786 38.9244C24.9144 38.6655 26.3717 38.5 28 38.5C29.6283 38.5 31.0856 38.6655 32.1214 38.9244C32.6431 39.0548 33.0298 39.2022 33.2741 39.3466Z" fill="#D9D9D9" stroke="black"/>
<path d="M33.2741 35.3466C33.3922 35.4164 33.4507 35.4689 33.479 35.5C33.4507 35.5311 33.3922 35.5836 33.2741 35.6534C33.0298 35.7978 32.6431 35.9452 32.1214 36.0756C31.0856 36.3345 29.6283 36.5 28 36.5C26.3717 36.5 24.9144 36.3345 23.8786 36.0756C23.3569 35.9452 22.9702 35.7978 22.7259 35.6534C22.6078 35.5836 22.5493 35.5311 22.521 35.5C22.5493 35.4689 22.6078 35.4164 22.7259 35.3466C22.9702 35.2022 23.3569 35.0548 23.8786 34.9244C24.9144 34.6655 26.3717 34.5 28 34.5C29.6283 34.5 31.0856 34.6655 32.1214 34.9244C32.6431 35.0548 33.0298 35.2022 33.2741 35.3466Z" fill="#D9D9D9" stroke="black"/>
<path d="M33.2741 34.3466C33.3922 34.4164 33.4507 34.4689 33.479 34.5C33.4507 34.5311 33.3922 34.5836 33.2741 34.6534C33.0298 34.7978 32.6431 34.9452 32.1214 35.0756C31.0856 35.3345 29.6283 35.5 28 35.5C26.3717 35.5 24.9144 35.3345 23.8786 35.0756C23.3569 34.9452 22.9702 34.7978 22.7259 34.6534C22.6078 34.5836 22.5493 34.5311 22.521 34.5C22.5493 34.4689 22.6078 34.4164 22.7259 34.3466C22.9702 34.2022 23.3569 34.0548 23.8786 33.9244C24.9144 33.6655 26.3717 33.5 28 33.5C29.6283 33.5 31.0856 33.6655 32.1214 33.9244C32.6431 34.0548 33.0298 34.2022 33.2741 34.3466Z" fill="#D9D9D9" stroke="black"/>
<path d="M33.3927 33.5536C33.3999 33.5556 33.4068 33.5576 33.4135 33.5597C33.3802 33.5859 33.3351 33.6173 33.2741 33.6534C33.0298 33.7978 32.6431 33.9452 32.1214 34.0756C31.0856 34.3345 29.6283 34.5 28 34.5C26.3717 34.5 24.9144 34.3345 23.8786 34.0756C23.3569 33.9452 22.9702 33.7978 22.7259 33.6534C22.6649 33.6173 22.6198 33.5859 22.5865 33.5597C22.5932 33.5576 22.6001 33.5556 22.6073 33.5536C22.8441 33.4867 23.2274 33.4499 23.7672 33.4392C24.2968 33.4288 24.9314 33.4436 25.6521 33.4615C25.6815 33.4622 25.711 33.4629 25.7407 33.4637C26.434 33.481 27.1985 33.5 28 33.5C28.8015 33.5 29.566 33.481 30.2593 33.4637C30.289 33.4629 30.3185 33.4622 30.3479 33.4615C31.0686 33.4436 31.7032 33.4288 32.2328 33.4392C32.7726 33.4499 33.1559 33.4867 33.3927 33.5536Z" fill="#D9D9D9" stroke="black"/>
<defs>
<filter id="filter0_d_1_161" x="0" y="0" width="56" height="56" filterUnits="userSpaceOnUse" color-interpolation-filters="sRGB">
<feFlood flood-opacity="0" result="BackgroundImageFix"/>
<feColorMatrix in="SourceAlpha" type="matrix" values="0 0 0 0 0 0 0 0 0 0 0 0 0 0 0 0 0 0 127 0" result="hardAlpha"/>
<feMorphology radius="1" operator="dilate" in="SourceAlpha" result="effect1_dropShadow_1_161"/>
<feOffset/>
<feGaussianBlur stdDeviation="5"/>
<feComposite in2="hardAlpha" operator="out"/>
<feColorMatrix type="matrix" values="0 0 0 0 0 0 0 0 0 0 0 0 0 0 0 0 0 0 0.25 0"/>
<feBlend mode="normal" in2="BackgroundImageFix" result="effect1_dropShadow_1_161"/>
<feBlend mode="normal" in="SourceGraphic" in2="effect1_dropShadow_1_161" result="shape"/>
</filter>
</defs>
</svg>
